<svg xmlns="http://www.w3.org/2000/svg" viewBox="0 0 527 98">
    <path d="M497.864289 77.9237818C502.946663 77.9237818 508.267274 75.7002429 510.570225 71.4119892L510.887874 71.4119892C511.404053 76.1767155 514.421713 78.2811363 518.709966 78.2811363 523.39528 78.2811363 526.770295 75.739949 526.770295 70.1016895L526.770295 47.3104154C526.770295 38.4162597 518.630554 32.3412336 506.480502 32.3412336 495.561338 32.3412336 487.977482 35.676542 486.309827 41.2750954 486.071591 42.0692165 485.992179 42.7045133 485.992179 43.6971646 485.992179 47.0721791 488.731897 49.4545422 492.583384 49.4545422 495.005453 49.4545422 497.070168 48.5810091 498.976058 46.8339428 501.795188 44.2530494 503.065782 43.5780465 505.606969 43.5780465 508.664335 43.5780465 510.887874 45.1662886 510.887874 48.1045365L510.887874 50.2486633 501.279009 50.8442541C489.565724 51.558963 483.093637 56.125159 483.093637 64.5428422 483.093637 72.4443466 489.883372 77.9237818 497.864289 77.9237818ZM503.939315 67.0443235C501.080479 67.0443235 499.134882 65.6546116 499.134882 63.2722485 499.134882 61.1281217 500.881949 59.6589977 503.979021 59.4207614L510.887874 58.9442888 510.887874 61.8031245C510.887874 65.0193148 507.552565 67.0443235 503.939315 67.0443235ZM455.901572 78.2811363C460.904535 78.2811363 464.041313 75.4223005 464.041313 69.8634532L464.041313 54.7354472C464.041313 49.9310149 465.073671 48.501597 469.441336 48.3427728 472.41929 48.2236546 474.682535 47.5089457 476.191365 46.1589399 477.700195 44.8089341 478.45461 42.8633375 478.45461 40.2824441 478.45461 37.2647841 477.620783 35.1603633 475.992835 33.9691818 475.000184 33.2147668 473.650178 32.8177063 472.02223 32.8177063 467.654564 32.8177063 464.756022 35.9147783 463.723665 42.2280407L463.406016 42.2280407 463.406016 40.6397986C463.406016 35.3191876 460.269238 32.4603518 455.703042 32.4603518 450.938316 32.4603518 447.761832 35.3191876 447.761832 40.6000925L447.761832 69.8634532C447.761832 75.4223005 450.89861 78.2811363 455.901572 78.2811363ZM415.646216 78.4002545C429.980101 78.4002545 438.715433 70.1811016 438.715433 55.331038 438.715433 40.8383289 429.781571 32.3412336 415.646216 32.3412336 401.590274 32.3412336 392.616706 40.917741 392.616706 55.331038 392.616706 70.1413956 401.352037 78.4002545 415.646216 78.4002545ZM415.646216 66.7663811C411.556493 66.7663811 409.134424 62.7163638 409.134424 55.370744 409.134424 48.2236546 411.675611 43.975107 415.646216 43.975107 419.656528 43.975107 422.197715 48.2236546 422.197715 55.370744 422.197715 62.7163638 419.696234 66.7663811 415.646216 66.7663811ZM351.090756 77.288485 378.845287 77.288485C382.73648 77.288485 385.118843 75.0649461 385.118843 71.253165 385.118843 67.441384 382.776186 65.2178451 378.845287 65.2178451L366.298174 65.2178451 366.298174 64.9001966 381.386474 45.7618794C382.855598 43.9354009 383.451189 42.2677467 383.451189 40.0839139 383.451189 36.0736026 380.751177 33.4530031 376.542336 33.4530031L350.892226 33.4530031C346.961327 33.4530031 344.658376 35.676542 344.658376 39.4883231 344.658376 43.3001041 347.001033 45.523643 350.892226 45.523643L364.392284 45.523643 364.392284 45.8412915 346.921621 66.5281448C345.412791 68.2752111 344.8172 69.704629 344.8172 71.4914013 344.8172 75.02524 347.239269 77.288485 351.090756 77.288485ZM313.456 78.4002545C327.789885 78.4002545 336.525216 70.1811016 336.525216 55.331038 336.525216 40.8383289 327.591354 32.3412336 313.456 32.3412336 299.400057 32.3412336 290.426489 40.917741 290.426489 55.331038 290.426489 70.1413956 299.161821 78.4002545 313.456 78.4002545ZM313.456 66.7663811C309.366276 66.7663811 306.944207 62.7163638 306.944207 55.370744 306.944207 48.2236546 309.485394 43.975107 313.456 43.975107 317.466311 43.975107 320.007498 48.2236546 320.007498 55.370744 320.007498 62.7163638 317.506017 66.7663811 313.456 66.7663811ZM262.321185 78.2811363C267.324148 78.2811363 270.460926 75.4223005 270.460926 69.8634532L270.460926 54.7354472C270.460926 49.9310149 271.493283 48.501597 275.860949 48.3427728 278.838903 48.2236546 281.102148 47.5089457 282.610978 46.1589399 284.119808 44.8089341 284.874223 42.8633375 284.874223 40.2824441 284.874223 37.2647841 284.040396 35.1603633 282.412448 33.9691818 281.419797 33.2147668 280.069791 32.8177063 278.441843 32.8177063 274.074177 32.8177063 271.175635 35.9147783 270.143278 42.2280407L269.825629 42.2280407 269.825629 40.6397986C269.825629 35.3191876 266.688851 32.4603518 262.122655 32.4603518 257.357929 32.4603518 254.181445 35.3191876 254.181445 40.6000925L254.181445 69.8634532C254.181445 75.4223005 257.318223 78.2811363 262.321185 78.2811363ZM215.434918 78.1620182C221.986417 78.1620182 226.076141 74.6281795 227.823207 68.6722716L228.140855 68.6722716 228.140855 70.0222774C228.140855 75.7002429 231.396752 78.2811363 236.082066 78.2811363 240.76738 78.2811363 244.023276 75.7002429 244.023276 69.9825714L244.023276 40.917741C244.023276 35.1206573 240.648262 32.4603518 235.883536 32.4603518 231.118809 32.4603518 227.743795 35.1206573 227.743795 40.8780349L227.743795 57.9516375C227.743795 62.2001851 225.361432 65.0193148 221.708475 65.0193148 217.896694 65.0193148 215.395212 62.5575395 215.395212 57.9119314L215.395212 40.917741C215.395212 35.1206573 212.020198 32.4603518 207.255472 32.4603518 202.490745 32.4603518 199.115731 35.1206573 199.115731 40.8780349L199.115731 61.5648882C199.115731 72.00758 206.024584 78.1620182 215.434918 78.1620182ZM148.417683 78.2811363C153.778 78.2811363 156.835366 75.1046521 156.835366 69.4663927L156.835366 62.2795972 161.838329 57.1178104 174.70309 73.4369979C177.442807 76.9311305 179.904583 78.2811363 183.517833 78.2811363 188.123736 78.2811363 191.617868 74.7472976 191.617868 70.1413956 191.617868 67.7590324 190.386981 65.2178451 187.488439 61.6443003L175.10015 46.3177641 186.932554 33.6912394C189.314917 31.1500521 190.18845 29.3235736 190.18845 26.7823863 190.18845 22.4544266 186.614906 19 182.207534 19 179.348698 19 177.164865 20.1117695 174.742796 22.811781L157.153015 42.7045133 156.835366 42.7045133 156.835366 27.8147436C156.835366 22.1764842 153.778 19 148.417683 19 143.057366 19 140 22.1764842 140 27.8147436L140 69.4663927C140 75.1046521 143.057366 78.2811363 148.417683 78.2811363ZM7.50132945 57.1540126C7.49028657 67.0010255 11.6649928 76.3890767 18.9851765 82.9787615 11.5077627 75.4014563 11.1765943 63.3307062 18.2273061 55.3551498 25.2780178 47.3795934 37.302849 46.222818 45.7458336 52.7078982 54.1888182 59.1929783 56.1667457 71.105312 50.2722717 79.9689779 44.3777976 88.8326437 32.6238367 91.6207721 23.3736242 86.3495405 29.0080177 90.0119262 35.5868129 91.9563495 42.3077266 91.9457318 61.5364875 91.9457318 77.1206498 76.3694165 77.1206498 57.1540126 77.1206498 37.9386087 61.5364875 22.362337 42.3077266 22.362337 23.0855137 22.362337 7.50132945 37.9399177 7.50132945 57.1540126ZM0 28.2004194C4.55016888 14.2546057 17.3125238 4.30378698 31.2269016 2.27373675e-13 14.8681756 2.27373675e-13 0 10.4912045 0 28.2004194ZM.0877418766 51.0630477C.0877418766 54.3471013.429899371 57.6222262 1.11053526 60.8350342.94177632 59.3070697.856961965 57.771005.856474129 56.2337572.856474129 33.1566841 19.573184 14.4478788 42.6600072 14.4478788 65.7468305 14.4478788 84.4635404 33.1606112 84.4635404 56.2337572 84.4635404 78.524097 67.001421 96.736776 45.0067987 97.9528745 45.682549 97.9816734 46.3609184 98 47.0445262 98 72.9744769 98 94 76.9859746 94 51.0630477 94 25.1401208 72.977096 4.12740436 47.0445262 4.12740436 21.1145755 4.12740436.0877418766 25.1414298.0877418766 51.0630477Z"/>
</svg>
