<svg xmlns="http://www.w3.org/2000/svg" viewBox="0 0 81 15">
    <path fill="#FF9300" d="M76.555204 11.9271095C77.3367066 11.9271095 78.1548421 11.5867719 78.5089605 10.9304065L78.5578044 10.9304065C78.6371758 11.6597014 79.1011929 11.9818066 79.7605857 11.9818066 80.4810334 11.9818066 81 11.5928493 81 10.7298504L81 7.24139011C81 5.88003974 79.7483748 4.95018882 77.8800951 4.95018882 76.2010856 4.95018882 75.0349372 5.46069521 74.7785067 6.31761665 74.7418738 6.43916579 74.7296628 6.5364051 74.7296628 6.68834152 74.7296628 7.20492537 75.1509415 7.56957279 75.743174 7.56957279 76.1156088 7.56957279 76.4330942 7.43586874 76.7261577 7.16846063 77.1596474 6.77342592 77.3550231 6.67010915 77.7457744 6.67010915 78.215897 6.67010915 78.5578044 6.91320743 78.5578044 7.36293925L78.5578044 7.69112193 77.0802761 7.78228379C75.2791568 7.89167801 74.2839621 8.59058557 74.2839621 9.87900645 74.2839621 11.0884204 75.3280007 11.9271095 76.555204 11.9271095ZM77.4893438 10.2618862C77.0497486 10.2618862 76.7505796 10.0491753 76.7505796 9.68452783 76.7505796 9.35634515 77.0192212 9.13147924 77.4954493 9.0950145L78.5578044 9.02208502 78.5578044 9.45966192C78.5578044 9.95193594 78.0449433 10.2618862 77.4893438 10.2618862ZM70.1027141 11.9818066C70.8720057 11.9818066 71.3543393 11.5442297 71.3543393 10.6933857L71.3543393 8.37787457C71.3543393 7.64250228 71.513082 7.42371382 72.1846858 7.39940399 72.6425975 7.38117162 72.9906104 7.2717774 73.222619 7.06514386 73.4546275 6.85851032 73.5706318 6.56071493 73.5706318 6.16568022 73.5706318 5.70379349 73.4424166 5.38168827 73.1920915 5.19936456 73.0394543 5.08389287 72.8318677 5.0231183 72.5815426 5.0231183 71.9099388 5.0231183 71.4642381 5.49715995 71.3054954 6.46347562L71.2566515 6.46347562 71.2566515 6.22037733C71.2566515 5.4059981 70.7743179 4.96842119 70.0721866 4.96842119 69.3395279 4.96842119 68.8510888 5.4059981 68.8510888 6.21429988L68.8510888 10.6933857C68.8510888 11.5442297 69.3334225 11.9818066 70.1027141 11.9818066ZM63.9127602 12.000039C66.1168417 12.000039 67.4600493 10.7420053 67.4600493 8.46903643 67.4600493 6.25076462 66.0863143 4.95018882 63.9127602 4.95018882 61.7514171 4.95018882 60.3715766 6.26291953 60.3715766 8.46903643 60.3715766 10.7359279 61.7147841 12.000039 63.9127602 12.000039ZM63.9127602 10.219344C63.2838948 10.219344 62.91146 9.59944343 62.91146 8.47511389 62.91146 7.38117162 63.3022113 6.73088372 63.9127602 6.73088372 64.5294146 6.73088372 64.9201659 7.38117162 64.9201659 8.47511389 64.9201659 9.59944343 64.5355201 10.219344 63.9127602 10.219344ZM53.986247 11.8298702 58.2539838 11.8298702C58.8523218 11.8298702 59.2186511 11.4895326 59.2186511 10.9060967 59.2186511 10.3226608 58.8584272 9.98232322 58.2539838 9.98232322L56.3246493 9.98232322 56.3246493 9.93370357 58.6447351 7.00436929C58.8706382 6.72480627 58.9622206 6.46955307 58.9622206 6.13529294 58.9622206 5.52146978 58.5470473 5.12035762 57.8998655 5.12035762L53.9557196 5.12035762C53.3512762 5.12035762 52.9971578 5.46069521 52.9971578 6.04413108 52.9971578 6.62756695 53.3573816 6.96790455 53.9557196 6.96790455L56.0315858 6.96790455 56.0315858 7.0165242 53.3451707 10.1828793C53.1131621 10.4502874 53.0215797 10.6690759 53.0215797 10.9425614 53.0215797 11.4834551 53.3940146 11.8298702 53.986247 11.8298702ZM48.1992554 12.000039C50.4033369 12.000039 51.7465445 10.7420053 51.7465445 8.46903643 51.7465445 6.25076462 50.3728095 4.95018882 48.1992554 4.95018882 46.0379123 4.95018882 44.6580718 6.26291953 44.6580718 8.46903643 44.6580718 10.7359279 46.0012793 12.000039 48.1992554 12.000039ZM48.1992554 10.219344C47.57039 10.219344 47.1979552 9.59944343 47.1979552 8.47511389 47.1979552 7.38117162 47.5887065 6.73088372 48.1992554 6.73088372 48.8159098 6.73088372 49.2066611 7.38117162 49.2066611 8.47511389 49.2066611 9.59944343 48.8220153 10.219344 48.1992554 10.219344ZM40.3363975 11.9818066C41.1056891 11.9818066 41.5880228 11.5442297 41.5880228 10.6933857L41.5880228 8.37787457C41.5880228 7.64250228 41.7467655 7.42371382 42.4183693 7.39940399 42.8762809 7.38117162 43.2242938 7.2717774 43.4563024 7.06514386 43.688311 6.85851032 43.8043153 6.56071493 43.8043153 6.16568022 43.8043153 5.70379349 43.6761 5.38168827 43.4257749 5.19936456 43.2731377 5.08389287 43.0655511 5.0231183 42.815226 5.0231183 42.1436223 5.0231183 41.6979216 5.49715995 41.5391788 6.46347562L41.4903349 6.46347562 41.4903349 6.22037733C41.4903349 5.4059981 41.0080013 4.96842119 40.3058701 4.96842119 39.5732114 4.96842119 39.0847723 5.4059981 39.0847723 6.21429988L39.0847723 10.6933857C39.0847723 11.5442297 39.5671059 11.9818066 40.3363975 11.9818066ZM33.1268269 11.9635742C34.1342326 11.9635742 34.763098 11.4226805 35.0317395 10.511062L35.0805834 10.511062 35.0805834 10.7176955C35.0805834 11.5867719 35.5812335 11.9818066 36.3016812 11.9818066 37.0221289 11.9818066 37.522779 11.5867719 37.522779 10.7116181L37.522779 6.26291953C37.522779 5.37561081 37.0038125 4.96842119 36.2711538 4.96842119 35.5384951 4.96842119 35.0195285 5.37561081 35.0195285 6.25684208L35.0195285 8.87014859C35.0195285 9.52043649 34.6531992 9.95193594 34.0914942 9.95193594 33.5053673 9.95193594 33.1207215 9.5751336 33.1207215 8.86407113L33.1207215 6.26291953C33.1207215 5.37561081 32.6017549 4.96842119 31.8690962 4.96842119 31.1364375 4.96842119 30.617471 5.37561081 30.617471 6.25684208L30.617471 9.42319718C30.617471 11.0215684 31.6798261 11.9635742 33.1268269 11.9635742ZM22.8217735 11.9818066C23.6460145 11.9818066 24.1161371 11.49561 24.1161371 10.6326111L24.1161371 9.5325914 24.8854287 8.74252199 26.8636072 11.2403568C27.2848859 11.775173 27.6634262 11.9818066 28.2190257 11.9818066 28.9272625 11.9818066 29.4645455 11.4409129 29.4645455 10.7359279 29.4645455 10.3712805 29.2752753 9.98232322 28.8295746 9.43535209L26.9246621 7.08945369 28.7440978 5.15682236C29.1104271 4.76786511 29.2447479 4.48830209 29.2447479 4.09934484 29.2447479 3.43690203 28.6952539 2.90816327 28.0175446 2.90816327 27.5779494 2.90816327 27.2421475 3.07833206 26.8697127 3.49159914L24.164981 6.5364051 24.1161371 6.5364051 24.1161371 4.25735872C24.1161371 3.39435983 23.6460145 2.90816327 22.8217735 2.90816327 21.9975324 2.90816327 21.5274098 3.39435983 21.5274098 4.25735872L21.5274098 10.6326111C21.5274098 11.49561 21.9975324 11.9818066 22.8217735 11.9818066ZM1.15345852 8.74806315C1.15176049 10.255259 1.79369342 11.6922056 2.91929768 12.7008308 1.76951659 11.5410392 1.71859376 9.69347545 2.80276205 8.47272701 3.88693034 7.25197858 5.73595513 7.07492113 7.03420933 8.06753544 8.33246353 9.06014975 8.63660394 10.8834661 7.73022709 12.2401497 6.82385024 13.5968332 5.01647644 14.0235876 3.59409705 13.2167664 4.46048203 13.7773356 5.47208502 14.0749515 6.5055412 14.0733263 9.46229417 14.0733263 11.8586274 11.6891964 11.8586274 8.74806315 11.8586274 5.8069299 9.46229417 3.42280669 6.5055412 3.42280669 3.54979509 3.42280669 1.15345852 5.80713026 1.15345852 8.74806315ZM0 4.31639073C.699666787 2.1818274 2.66209852.658742905 4.80167362 0 2.28623792 0 0 1.60579661 0 4.31639073ZM.0134918238 7.8157726C.0134918238 8.31843388.066104428 8.81972851.170763912 9.31148483.14481432 9.07761271.131772653 8.84250077.13169764 8.60720774.13169764 5.07500267 3.00971395 2.21141002 6.55971041 2.21141002 10.1097069 2.21141002 12.9877232 5.07560376 12.9877232 8.60720774 12.9877232 12.0189944 10.3026218 14.8066494 6.92057 14.9927869 7.02447823 14.9971949 7.1287892 15 7.23390567 15 11.2210819 15 14.454118 11.7835675 14.454118 7.8157726 14.454118 3.84797767 11.2214847.631745565 7.23390567.631745565 3.24672942.631745565.0134918238 3.84817803.0134918238 7.8157726Z"/>
</svg>
