<svg xmlns="http://www.w3.org/2000/svg" xmlns:xlink="http://www.w3.org/1999/xlink" viewBox="0 0 552 124">
    <defs>
        <filter id="b" width="173.3%" height="169.7%" x="-36.6%" y="-30.5%" filterUnits="objectBoundingBox">
            <feOffset dy="2" in="SourceAlpha" result="shadowOffsetOuter1"/>
            <feGaussianBlur in="shadowOffsetOuter1" result="shadowBlurOuter1" stdDeviation="5"/>
            <feColorMatrix in="shadowBlurOuter1" result="shadowMatrixOuter1" values="0 0 0 0 1 0 0 0 0 1 0 0 0 0 1 0 0 0 0.248013583 0"/>
            <feOffset dy="2" in="SourceAlpha" result="shadowOffsetOuter2"/>
            <feGaussianBlur in="shadowOffsetOuter2" result="shadowBlurOuter2" stdDeviation="5"/>
            <feColorMatrix in="shadowBlurOuter2" result="shadowMatrixOuter2" values="0 0 0 0 0 0 0 0 0 0 0 0 0 0 0 0 0 0 0.203783155 0"/>
            <feMerge>
                <feMergeNode in="shadowMatrixOuter1"/>
                <feMergeNode in="shadowMatrixOuter2"/>
            </feMerge>
        </filter>
        <filter id="d" width="204.3%" height="169.8%" x="-52.1%" y="-30.6%" filterUnits="objectBoundingBox">
            <feOffset dy="2" in="SourceAlpha" result="shadowOffsetOuter1"/>
            <feGaussianBlur in="shadowOffsetOuter1" result="shadowBlurOuter1" stdDeviation="5"/>
            <feColorMatrix in="shadowBlurOuter1" result="shadowMatrixOuter1" values="0 0 0 0 1 0 0 0 0 1 0 0 0 0 1 0 0 0 0.248013583 0"/>
            <feOffset dy="2" in="SourceAlpha" result="shadowOffsetOuter2"/>
            <feGaussianBlur in="shadowOffsetOuter2" result="shadowBlurOuter2" stdDeviation="5"/>
            <feColorMatrix in="shadowBlurOuter2" result="shadowMatrixOuter2" values="0 0 0 0 0 0 0 0 0 0 0 0 0 0 0 0 0 0 0.203783155 0"/>
            <feMerge>
                <feMergeNode in="shadowMatrixOuter1"/>
                <feMergeNode in="shadowMatrixOuter2"/>
            </feMerge>
        </filter>
        <filter id="f" width="169.4%" height="169.5%" x="-34.7%" y="-30.4%" filterUnits="objectBoundingBox">
            <feOffset dy="2" in="SourceAlpha" result="shadowOffsetOuter1"/>
            <feGaussianBlur in="shadowOffsetOuter1" result="shadowBlurOuter1" stdDeviation="5"/>
            <feColorMatrix in="shadowBlurOuter1" result="shadowMatrixOuter1" values="0 0 0 0 1 0 0 0 0 1 0 0 0 0 1 0 0 0 0.248013583 0"/>
            <feOffset dy="2" in="SourceAlpha" result="shadowOffsetOuter2"/>
            <feGaussianBlur in="shadowOffsetOuter2" result="shadowBlurOuter2" stdDeviation="5"/>
            <feColorMatrix in="shadowBlurOuter2" result="shadowMatrixOuter2" values="0 0 0 0 0 0 0 0 0 0 0 0 0 0 0 0 0 0 0.203783155 0"/>
            <feMerge>
                <feMergeNode in="shadowMatrixOuter1"/>
                <feMergeNode in="shadowMatrixOuter2"/>
            </feMerge>
        </filter>
        <filter id="h" width="179.1%" height="173%" x="-39.5%" y="-31.9%" filterUnits="objectBoundingBox">
            <feOffset dy="2" in="SourceAlpha" result="shadowOffsetOuter1"/>
            <feGaussianBlur in="shadowOffsetOuter1" result="shadowBlurOuter1" stdDeviation="5"/>
            <feColorMatrix in="shadowBlurOuter1" result="shadowMatrixOuter1" values="0 0 0 0 1 0 0 0 0 1 0 0 0 0 1 0 0 0 0.248013583 0"/>
            <feOffset dy="2" in="SourceAlpha" result="shadowOffsetOuter2"/>
            <feGaussianBlur in="shadowOffsetOuter2" result="shadowBlurOuter2" stdDeviation="5"/>
            <feColorMatrix in="shadowBlurOuter2" result="shadowMatrixOuter2" values="0 0 0 0 0 0 0 0 0 0 0 0 0 0 0 0 0 0 0.203783155 0"/>
            <feMerge>
                <feMergeNode in="shadowMatrixOuter1"/>
                <feMergeNode in="shadowMatrixOuter2"/>
            </feMerge>
        </filter>
        <filter id="j" width="169.4%" height="169.5%" x="-34.7%" y="-30.4%" filterUnits="objectBoundingBox">
            <feOffset dy="2" in="SourceAlpha" result="shadowOffsetOuter1"/>
            <feGaussianBlur in="shadowOffsetOuter1" result="shadowBlurOuter1" stdDeviation="5"/>
            <feColorMatrix in="shadowBlurOuter1" result="shadowMatrixOuter1" values="0 0 0 0 1 0 0 0 0 1 0 0 0 0 1 0 0 0 0.248013583 0"/>
            <feOffset dy="2" in="SourceAlpha" result="shadowOffsetOuter2"/>
            <feGaussianBlur in="shadowOffsetOuter2" result="shadowBlurOuter2" stdDeviation="5"/>
            <feColorMatrix in="shadowBlurOuter2" result="shadowMatrixOuter2" values="0 0 0 0 0 0 0 0 0 0 0 0 0 0 0 0 0 0 0.203783155 0"/>
            <feMerge>
                <feMergeNode in="shadowMatrixOuter1"/>
                <feMergeNode in="shadowMatrixOuter2"/>
            </feMerge>
        </filter>
        <filter id="l" width="204.3%" height="169.8%" x="-52.1%" y="-30.6%" filterUnits="objectBoundingBox">
            <feOffset dy="2" in="SourceAlpha" result="shadowOffsetOuter1"/>
            <feGaussianBlur in="shadowOffsetOuter1" result="shadowBlurOuter1" stdDeviation="5"/>
            <feColorMatrix in="shadowBlurOuter1" result="shadowMatrixOuter1" values="0 0 0 0 1 0 0 0 0 1 0 0 0 0 1 0 0 0 0.248013583 0"/>
            <feOffset dy="2" in="SourceAlpha" result="shadowOffsetOuter2"/>
            <feGaussianBlur in="shadowOffsetOuter2" result="shadowBlurOuter2" stdDeviation="5"/>
            <feColorMatrix in="shadowBlurOuter2" result="shadowMatrixOuter2" values="0 0 0 0 0 0 0 0 0 0 0 0 0 0 0 0 0 0 0.203783155 0"/>
            <feMerge>
                <feMergeNode in="shadowMatrixOuter1"/>
                <feMergeNode in="shadowMatrixOuter2"/>
            </feMerge>
        </filter>
        <filter id="n" width="171.3%" height="169.8%" x="-35.6%" y="-30.6%" filterUnits="objectBoundingBox">
            <feOffset dy="2" in="SourceAlpha" result="shadowOffsetOuter1"/>
            <feGaussianBlur in="shadowOffsetOuter1" result="shadowBlurOuter1" stdDeviation="5"/>
            <feColorMatrix in="shadowBlurOuter1" result="shadowMatrixOuter1" values="0 0 0 0 1 0 0 0 0 1 0 0 0 0 1 0 0 0 0.248013583 0"/>
            <feOffset dy="2" in="SourceAlpha" result="shadowOffsetOuter2"/>
            <feGaussianBlur in="shadowOffsetOuter2" result="shadowBlurOuter2" stdDeviation="5"/>
            <feColorMatrix in="shadowBlurOuter2" result="shadowMatrixOuter2" values="0 0 0 0 0 0 0 0 0 0 0 0 0 0 0 0 0 0 0.203783155 0"/>
            <feMerge>
                <feMergeNode in="shadowMatrixOuter1"/>
                <feMergeNode in="shadowMatrixOuter2"/>
            </feMerge>
        </filter>
        <filter id="p" width="162%" height="154%" x="-31%" y="-23.6%" filterUnits="objectBoundingBox">
            <feOffset dy="2" in="SourceAlpha" result="shadowOffsetOuter1"/>
            <feGaussianBlur in="shadowOffsetOuter1" result="shadowBlurOuter1" stdDeviation="5"/>
            <feColorMatrix in="shadowBlurOuter1" result="shadowMatrixOuter1" values="0 0 0 0 1 0 0 0 0 1 0 0 0 0 1 0 0 0 0.248013583 0"/>
            <feOffset dy="2" in="SourceAlpha" result="shadowOffsetOuter2"/>
            <feGaussianBlur in="shadowOffsetOuter2" result="shadowBlurOuter2" stdDeviation="5"/>
            <feColorMatrix in="shadowBlurOuter2" result="shadowMatrixOuter2" values="0 0 0 0 0 0 0 0 0 0 0 0 0 0 0 0 0 0 0.203783155 0"/>
            <feMerge>
                <feMergeNode in="shadowMatrixOuter1"/>
                <feMergeNode in="shadowMatrixOuter2"/>
            </feMerge>
        </filter>
        <filter id="r" width="141.9%" height="141.9%" x="-20.9%" y="-20.9%" filterUnits="objectBoundingBox">
            <feGaussianBlur in="SourceGraphic" stdDeviation="4.859"/>
        </filter>
        <filter id="t" width="131%" height="131.1%" x="-15.5%" y="-15.5%" filterUnits="objectBoundingBox">
            <feGaussianBlur in="SourceGraphic" stdDeviation="4.859"/>
        </filter>
        <filter id="v" width="135%" height="138.8%" x="-17.5%" y="-19.4%" filterUnits="objectBoundingBox">
            <feGaussianBlur in="SourceGraphic" stdDeviation="1.822"/>
        </filter>
        <filter id="x" width="118.4%" height="118.4%" x="-9.2%" y="-9.2%" filterUnits="objectBoundingBox">
            <feGaussianBlur in="SourceGraphic" stdDeviation="2.885"/>
        </filter>
        <filter id="z" width="117.5%" height="119.4%" x="-8.8%" y="-9.7%" filterUnits="objectBoundingBox">
            <feGaussianBlur in="SourceGraphic" stdDeviation=".911"/>
        </filter>
        <filter id="C" width="102.9%" height="102.9%" x="-1.4%" y="-1.4%" filterUnits="objectBoundingBox">
            <feGaussianBlur in="SourceAlpha" result="shadowBlurInner1" stdDeviation=".5"/>
            <feOffset dy="-1" in="shadowBlurInner1" result="shadowOffsetInner1"/>
            <feComposite in="shadowOffsetInner1" in2="SourceAlpha" k2="-1" k3="1" operator="arithmetic" result="shadowInnerInner1"/>
            <feColorMatrix in="shadowInnerInner1" values="0 0 0 0 1 0 0 0 0 1 0 0 0 0 1 0 0 0 1 0"/>
        </filter>
        <filter id="F" width="103.2%" height="103.2%" x="-1.6%" y="-1.6%" filterUnits="objectBoundingBox">
            <feGaussianBlur in="SourceAlpha" result="shadowBlurInner1" stdDeviation="1"/>
            <feOffset dy="-1" in="shadowBlurInner1" result="shadowOffsetInner1"/>
            <feComposite in="shadowOffsetInner1" in2="SourceAlpha" k2="-1" k3="1" operator="arithmetic" result="shadowInnerInner1"/>
            <feColorMatrix in="shadowInnerInner1" result="shadowMatrixInner1" values="0 0 0 0 1 0 0 0 0 0.576398671 0 0 0 0 0.000268810254 0 0 0 1 0"/>
            <feGaussianBlur in="SourceAlpha" result="shadowBlurInner2" stdDeviation="1"/>
            <feOffset dy="1" in="shadowBlurInner2" result="shadowOffsetInner2"/>
            <feComposite in="shadowOffsetInner2" in2="SourceAlpha" k2="-1" k3="1" operator="arithmetic" result="shadowInnerInner2"/>
            <feColorMatrix in="shadowInnerInner2" result="shadowMatrixInner2" values="0 0 0 0 1 0 0 0 0 0.909357488 0 0 0 0 0.786243677 0 0 0 1 0"/>
            <feMerge>
                <feMergeNode in="shadowMatrixInner1"/>
                <feMergeNode in="shadowMatrixInner2"/>
            </feMerge>
        </filter>
        <filter id="I" width="109.6%" height="110.6%" x="-4.8%" y="-5.3%" filterUnits="objectBoundingBox">
            <feGaussianBlur in="SourceAlpha" result="shadowBlurInner1" stdDeviation="1"/>
            <feOffset dy="-1" in="shadowBlurInner1" result="shadowOffsetInner1"/>
            <feComposite in="shadowOffsetInner1" in2="SourceAlpha" k2="-1" k3="1" operator="arithmetic" result="shadowInnerInner1"/>
            <feColorMatrix in="shadowInnerInner1" result="shadowMatrixInner1" values="0 0 0 0 1 0 0 0 0 0.576398671 0 0 0 0 0.000268810254 0 0 0 1 0"/>
            <feGaussianBlur in="SourceAlpha" result="shadowBlurInner2" stdDeviation="1"/>
            <feOffset dy="1" in="shadowBlurInner2" result="shadowOffsetInner2"/>
            <feComposite in="shadowOffsetInner2" in2="SourceAlpha" k2="-1" k3="1" operator="arithmetic" result="shadowInnerInner2"/>
            <feColorMatrix in="shadowInnerInner2" result="shadowMatrixInner2" values="0 0 0 0 1 0 0 0 0 0.909357488 0 0 0 0 0.786243677 0 0 0 1 0"/>
            <feMerge>
                <feMergeNode in="shadowMatrixInner1"/>
                <feMergeNode in="shadowMatrixInner2"/>
            </feMerge>
        </filter>
        <path id="a" d="M497.864289,77.9237818 C502.946663,77.9237818 508.267274,75.7002429 510.570225,71.4119892 L510.887874,71.4119892 C511.404053,76.1767155 514.421713,78.2811363 518.709966,78.2811363 C523.39528,78.2811363 526.770295,75.739949 526.770295,70.1016895 L526.770295,47.3104154 C526.770295,38.4162597 518.630554,32.3412336 506.480502,32.3412336 C495.561338,32.3412336 487.977482,35.676542 486.309827,41.2750954 C486.071591,42.0692165 485.992179,42.7045133 485.992179,43.6971646 C485.992179,47.0721791 488.731897,49.4545422 492.583384,49.4545422 C495.005453,49.4545422 497.070168,48.5810091 498.976058,46.8339428 C501.795188,44.2530494 503.065782,43.5780465 505.606969,43.5780465 C508.664335,43.5780465 510.887874,45.1662886 510.887874,48.1045365 L510.887874,50.2486633 L501.279009,50.8442541 C489.565724,51.558963 483.093637,56.125159 483.093637,64.5428422 C483.093637,72.4443466 489.883372,77.9237818 497.864289,77.9237818 Z M503.939315,67.0443235 C501.080479,67.0443235 499.134882,65.6546116 499.134882,63.2722485 C499.134882,61.1281217 500.881949,59.6589977 503.979021,59.4207614 L510.887874,58.9442888 L510.887874,61.8031245 C510.887874,65.0193148 507.552565,67.0443235 503.939315,67.0443235 Z"/>
        <path id="c" d="M455.901572,78.2811363 C460.904535,78.2811363 464.041313,75.4223005 464.041313,69.8634532 L464.041313,54.7354472 C464.041313,49.9310149 465.073671,48.501597 469.441336,48.3427728 C472.41929,48.2236546 474.682535,47.5089457 476.191365,46.1589399 C477.700195,44.8089341 478.45461,42.8633375 478.45461,40.2824441 C478.45461,37.2647841 477.620783,35.1603633 475.992835,33.9691818 C475.000184,33.2147668 473.650178,32.8177063 472.02223,32.8177063 C467.654564,32.8177063 464.756022,35.9147783 463.723665,42.2280407 L463.406016,42.2280407 L463.406016,40.6397986 C463.406016,35.3191876 460.269238,32.4603518 455.703042,32.4603518 C450.938316,32.4603518 447.761832,35.3191876 447.761832,40.6000925 L447.761832,69.8634532 C447.761832,75.4223005 450.89861,78.2811363 455.901572,78.2811363 Z"/>
        <path id="e" d="M415.646216,78.4002545 C429.980101,78.4002545 438.715433,70.1811016 438.715433,55.331038 C438.715433,40.8383289 429.781571,32.3412336 415.646216,32.3412336 C401.590274,32.3412336 392.616706,40.917741 392.616706,55.331038 C392.616706,70.1413956 401.352037,78.4002545 415.646216,78.4002545 Z M415.646216,66.7663811 C411.556493,66.7663811 409.134424,62.7163638 409.134424,55.370744 C409.134424,48.2236546 411.675611,43.975107 415.646216,43.975107 C419.656528,43.975107 422.197715,48.2236546 422.197715,55.370744 C422.197715,62.7163638 419.696234,66.7663811 415.646216,66.7663811 Z"/>
        <path id="g" d="M351.090756,77.288485 L378.845287,77.288485 C382.73648,77.288485 385.118843,75.0649461 385.118843,71.253165 C385.118843,67.441384 382.776186,65.2178451 378.845287,65.2178451 L366.298174,65.2178451 L366.298174,64.9001966 L381.386474,45.7618794 C382.855598,43.9354009 383.451189,42.2677467 383.451189,40.0839139 C383.451189,36.0736026 380.751177,33.4530031 376.542336,33.4530031 L350.892226,33.4530031 C346.961327,33.4530031 344.658376,35.676542 344.658376,39.4883231 C344.658376,43.3001041 347.001033,45.523643 350.892226,45.523643 L364.392284,45.523643 L364.392284,45.8412915 L346.921621,66.5281448 C345.412791,68.2752111 344.8172,69.704629 344.8172,71.4914013 C344.8172,75.02524 347.239269,77.288485 351.090756,77.288485 Z"/>
        <path id="i" d="M313.456,78.4002545 C327.789885,78.4002545 336.525216,70.1811016 336.525216,55.331038 C336.525216,40.8383289 327.591354,32.3412336 313.456,32.3412336 C299.400057,32.3412336 290.426489,40.917741 290.426489,55.331038 C290.426489,70.1413956 299.161821,78.4002545 313.456,78.4002545 Z M313.456,66.7663811 C309.366276,66.7663811 306.944207,62.7163638 306.944207,55.370744 C306.944207,48.2236546 309.485394,43.975107 313.456,43.975107 C317.466311,43.975107 320.007498,48.2236546 320.007498,55.370744 C320.007498,62.7163638 317.506017,66.7663811 313.456,66.7663811 Z"/>
        <path id="k" d="M262.321185,78.2811363 C267.324148,78.2811363 270.460926,75.4223005 270.460926,69.8634532 L270.460926,54.7354472 C270.460926,49.9310149 271.493283,48.501597 275.860949,48.3427728 C278.838903,48.2236546 281.102148,47.5089457 282.610978,46.1589399 C284.119808,44.8089341 284.874223,42.8633375 284.874223,40.2824441 C284.874223,37.2647841 284.040396,35.1603633 282.412448,33.9691818 C281.419797,33.2147668 280.069791,32.8177063 278.441843,32.8177063 C274.074177,32.8177063 271.175635,35.9147783 270.143278,42.2280407 L269.825629,42.2280407 L269.825629,40.6397986 C269.825629,35.3191876 266.688851,32.4603518 262.122655,32.4603518 C257.357929,32.4603518 254.181445,35.3191876 254.181445,40.6000925 L254.181445,69.8634532 C254.181445,75.4223005 257.318223,78.2811363 262.321185,78.2811363 Z"/>
        <path id="m" d="M215.434918,78.1620182 C221.986417,78.1620182 226.076141,74.6281795 227.823207,68.6722716 L228.140855,68.6722716 L228.140855,70.0222774 C228.140855,75.7002429 231.396752,78.2811363 236.082066,78.2811363 C240.76738,78.2811363 244.023276,75.7002429 244.023276,69.9825714 L244.023276,40.917741 C244.023276,35.1206573 240.648262,32.4603518 235.883536,32.4603518 C231.118809,32.4603518 227.743795,35.1206573 227.743795,40.8780349 L227.743795,57.9516375 C227.743795,62.2001851 225.361432,65.0193148 221.708475,65.0193148 C217.896694,65.0193148 215.395212,62.5575395 215.395212,57.9119314 L215.395212,40.917741 C215.395212,35.1206573 212.020198,32.4603518 207.255472,32.4603518 C202.490745,32.4603518 199.115731,35.1206573 199.115731,40.8780349 L199.115731,61.5648882 C199.115731,72.00758 206.024584,78.1620182 215.434918,78.1620182 Z"/>
        <path id="o" d="M148.417683,78.2811363 C153.778,78.2811363 156.835366,75.1046521 156.835366,69.4663927 L156.835366,62.2795972 L161.838329,57.1178104 L174.70309,73.4369979 C177.442807,76.9311305 179.904583,78.2811363 183.517833,78.2811363 C188.123736,78.2811363 191.617868,74.7472976 191.617868,70.1413956 C191.617868,67.7590324 190.386981,65.2178451 187.488439,61.6443003 L175.10015,46.3177641 L186.932554,33.6912394 C189.314917,31.1500521 190.18845,29.3235736 190.18845,26.7823863 C190.18845,22.4544266 186.614906,19 182.207534,19 C179.348698,19 177.164865,20.1117695 174.742796,22.811781 L157.153015,42.7045133 L156.835366,42.7045133 L156.835366,27.8147436 C156.835366,22.1764842 153.778,19 148.417683,19 C143.057366,19 140,22.1764842 140,27.8147436 L140,69.4663927 C140,75.1046521 143.057366,78.2811363 148.417683,78.2811363 Z"/>
        <path id="A" d="M7.50132945,57.1540126 C7.49028657,67.0010255 11.6649928,76.3890767 18.9851765,82.9787615 C11.5077627,75.4014563 11.1765943,63.3307062 18.2273061,55.3551498 C25.2780178,47.3795934 37.302849,46.222818 45.7458336,52.7078982 C54.1888182,59.1929783 56.1667457,71.105312 50.2722717,79.9689779 C44.3777976,88.8326437 32.6238367,91.6207721 23.3736242,86.3495405 C29.0080177,90.0119262 35.5868129,91.9563495 42.3077266,91.9457318 C61.5364875,91.9457318 77.1206498,76.3694165 77.1206498,57.1540126 C77.1206498,37.9386087 61.5364875,22.362337 42.3077266,22.362337 C23.0855137,22.362337 7.50132945,37.9399177 7.50132945,57.1540126 Z"/>
        <path id="D" d="M0.0877418766,51.0630477 C0.0877418766,54.3471013 0.429899371,57.6222262 1.11053526,60.8350342 C0.94177632,59.3070697 0.856961965,57.771005 0.856474129,56.2337572 C0.856474129,33.1566841 19.573184,14.4478788 42.6600072,14.4478788 C65.7468305,14.4478788 84.4635404,33.1606112 84.4635404,56.2337572 C84.4635404,78.524097 67.001421,96.736776 45.0067987,97.9528745 C45.682549,97.9816734 46.3609184,98 47.0445262,98 C72.9744769,98 94,76.9859746 94,51.0630477 C94,25.1401208 72.977096,4.12740436 47.0445262,4.12740436 C21.1145755,4.12740436 0.0877418766,25.1414298 0.0877418766,51.0630477 Z"/>
        <path id="G" d="M0,28.2004194 C4.55016888,14.2546057 17.3125238,4.30378698 31.2269016,0 C14.8681756,0 0,10.4912045 0,28.2004194 Z"/>
        <linearGradient id="q" x1="0%" x2="102%" y1=".052%" y2="100.947%">
            <stop offset="0%" stop-color="#FFF" stop-opacity="0"/>
            <stop offset="100%" stop-color="#FFF"/>
        </linearGradient>
        <linearGradient id="s" x1="0%" x2="100%" y1=".042%" y2="99.958%">
            <stop offset="0%" stop-color="#FAD961" stop-opacity="0"/>
            <stop offset="100%" stop-color="#F76B1C"/>
        </linearGradient>
        <linearGradient id="u" x1="0%" x2="100%" y1="9.222%" y2="90.778%">
            <stop offset="0%" stop-color="#FAD961" stop-opacity="0"/>
            <stop offset="100%" stop-color="#F76B1C"/>
        </linearGradient>
        <linearGradient id="w" x1="50%" x2="50%" y1="24.97%" y2="86.937%">
            <stop offset="0%" stop-opacity="0"/>
            <stop offset="100%" stop-opacity=".5"/>
        </linearGradient>
        <linearGradient id="y" x1="50%" x2="50%" y1="24.97%" y2="86.937%">
            <stop offset="0%" stop-opacity="0"/>
            <stop offset="100%" stop-opacity=".5"/>
        </linearGradient>
        <linearGradient id="B" x1="100%" x2="0%" y1="99.948%" y2=".052%">
            <stop offset="1.393%" stop-color="#FFFBFB" stop-opacity=".7"/>
            <stop offset="28.99%" stop-color="#FFF" stop-opacity=".8"/>
            <stop offset="52.253%" stop-color="#FFF" stop-opacity=".9"/>
            <stop offset="73.529%" stop-color="#FFF"/>
            <stop offset="100%" stop-color="#FFF"/>
        </linearGradient>
        <radialGradient id="E" cx="0%" cy="0%" r="141.451%" fx="0%" fy="0%" gradientTransform="matrix(.70696 .70696 -.70666 .70726 0 0)">
            <stop offset="0%" stop-color="#FFF1BC"/>
            <stop offset="17.885%" stop-color="#FDDE84"/>
            <stop offset="48.887%" stop-color="#FFCB68"/>
            <stop offset="76.294%" stop-color="#FFAB2D"/>
            <stop offset="100%" stop-color="#FF9300"/>
        </radialGradient>
        <radialGradient id="H" cx="0%" cy="0%" r="149.203%" fx="0%" fy="0%" gradientTransform="matrix(.67023 .67023 -.60527 .74216 0 0)">
            <stop offset="0%" stop-color="#FFF1BC"/>
            <stop offset="17.885%" stop-color="#FDDE84"/>
            <stop offset="48.887%" stop-color="#FFCB68"/>
            <stop offset="76.294%" stop-color="#FFAB2D"/>
            <stop offset="100%" stop-color="#FF9300"/>
        </radialGradient>
    </defs>
    <g fill="none" transform="translate(15 7)">
        <use xlink:href="#a" fill="#000" filter="url(#b)"/>
        <use xlink:href="#a" fill="#F7F7F7"/>
        <use xlink:href="#c" fill="#000" filter="url(#d)"/>
        <use xlink:href="#c" fill="#F7F7F7"/>
        <use xlink:href="#e" fill="#000" filter="url(#f)"/>
        <use xlink:href="#e" fill="#F7F7F7"/>
        <use xlink:href="#g" fill="#000" filter="url(#h)"/>
        <use xlink:href="#g" fill="#F7F7F7"/>
        <use xlink:href="#i" fill="#000" filter="url(#j)"/>
        <use xlink:href="#i" fill="#F7F7F7"/>
        <use xlink:href="#k" fill="#000" filter="url(#l)"/>
        <use xlink:href="#k" fill="#F7F7F7"/>
        <use xlink:href="#m" fill="#000" filter="url(#n)"/>
        <use xlink:href="#m" fill="#F7F7F7"/>
        <use xlink:href="#o" fill="#000" filter="url(#p)"/>
        <use xlink:href="#o" fill="#F7F7F7"/>
        <path fill="url(#q)" d="M7.50132945,61.1540126 C7.49028657,71.0010255 11.6649928,80.3890767 18.9851765,86.9787615 C11.5077627,79.4014563 11.1765943,67.3307062 18.2273061,59.3551498 C25.2780178,51.3795934 37.302849,50.222818 45.7458336,56.7078982 C54.1888182,63.1929783 56.1667457,75.105312 50.2722717,83.9689779 C44.3777976,92.8326437 32.6238367,95.6207721 23.3736242,90.3495405 C29.0080177,94.0119262 35.5868129,95.9563495 42.3077266,95.9457318 C61.5364875,95.9457318 77.1206498,80.3694165 77.1206498,61.1540126 C77.1206498,41.9386087 61.5364875,26.362337 42.3077266,26.362337 C23.0855137,26.362337 7.50132945,41.9399177 7.50132945,61.1540126 Z" filter="url(#r)"/>
        <path fill="url(#s)" d="M0.0877418766,55.0630477 C0.0877418766,58.3471013 0.429899371,61.6222262 1.11053526,64.8350342 C0.94177632,63.3070697 0.856961965,61.771005 0.856474129,60.2337572 C0.856474129,37.1566841 19.573184,18.4478788 42.6600072,18.4478788 C65.7468305,18.4478788 84.4635404,37.1606112 84.4635404,60.2337572 C84.4635404,82.524097 67.001421,100.736776 45.0067987,101.952875 C45.682549,101.981673 46.3609184,102 47.0445262,102 C72.9744769,102 94,80.9859746 94,55.0630477 C94,29.1401208 72.977096,8.12740436 47.0445262,8.12740436 C21.1145755,8.12740436 0.0877418766,29.1414298 0.0877418766,55.0630477 Z" filter="url(#t)"/>
        <path fill="url(#u)" d="M0,32.2004194 C4.55016888,18.2546057 17.3125238,8.30378698 31.2269016,4 C14.8681756,4 0,14.4912045 0,32.2004194 Z" filter="url(#v)"/>
        <path fill="url(#w)" d="M0.0877418766,51.0630477 C0.0877418766,54.3471013 0.429899371,57.6222262 1.11053526,60.8350342 C0.94177632,59.3070697 0.856961965,57.771005 0.856474129,56.2337572 C0.856474129,33.1566841 19.573184,14.4478788 42.6600072,14.4478788 C65.7468305,14.4478788 84.4635404,33.1606112 84.4635404,56.2337572 C84.4635404,78.524097 67.001421,96.736776 45.0067987,97.9528745 C45.682549,97.9816734 46.3609184,98 47.0445262,98 C72.9744769,98 94,76.9859746 94,51.0630477 C94,25.1401208 72.977096,4.12740436 47.0445262,4.12740436 C21.1145755,4.12740436 0.0877418766,25.1414298 0.0877418766,51.0630477 Z M7.50132945,57.1540126 C7.49028657,67.0010255 11.6649928,76.3890767 18.9851765,82.9787615 C11.5077627,75.4014563 11.1765943,63.3307062 18.2273061,55.3551498 C25.2780178,47.3795934 37.302849,46.222818 45.7458336,52.7078982 C54.1888182,59.1929783 56.1667457,71.105312 50.2722717,79.9689779 C44.3777976,88.8326437 32.6238367,91.6207721 23.3736242,86.3495405 C29.0080177,90.0119262 35.5868129,91.9563495 42.3077266,91.9457318 C61.5364875,91.9457318 77.1206498,76.3694165 77.1206498,57.1540126 C77.1206498,37.9386087 61.5364875,22.362337 42.3077266,22.362337 C23.0855137,22.362337 7.50132945,37.9399177 7.50132945,57.1540126 Z" filter="url(#x)" opacity=".4" style="mix-blend-mode:multiply"/>
        <path fill="url(#y)" d="M0,28.2004194 C4.55016888,14.2546057 17.3125238,4.30378698 31.2269016,0 C14.8681756,0 0,10.4912045 0,28.2004194 Z" filter="url(#z)" opacity=".296" style="mix-blend-mode:multiply"/>
        <use xlink:href="#A" fill="url(#B)"/>
        <use xlink:href="#A" fill="#000" filter="url(#C)"/>
        <use xlink:href="#D" fill="url(#E)"/>
        <use xlink:href="#D" fill="#000" filter="url(#F)"/>
        <use xlink:href="#G" fill="url(#H)"/>
        <use xlink:href="#G" fill="#000" filter="url(#I)"/>
    </g>
</svg>
