<svg xmlns="http://www.w3.org/2000/svg" viewBox="0 0 96 100">
    <path d="M835.660932,680.320421 C835.649654,690.368393 839.913184,699.948037 847.389116,706.672206 C839.752609,698.940262 839.414394,686.62317 846.615121,678.484847 C853.815848,670.346524 866.096527,669.166141 874.719149,675.78357 C883.341772,682.400998 885.361783,694.556441 879.341894,703.600998 C873.322006,712.645555 861.317961,715.490584 851.870935,710.111776 C857.62521,713.848904 864.343979,715.83301 871.207891,715.822175 C890.845774,715.822175 906.761515,699.927976 906.761515,680.320421 C906.761515,660.712866 890.845774,644.818711 871.207891,644.818711 C851.576695,644.818711 835.660932,660.714202 835.660932,680.320421 Z M828,650.775938 C832.646981,636.545516 845.680875,626.391619 859.891304,622 C843.18452,622 828,632.705311 828,650.775938 Z M828.089609,674.105151 C828.089609,677.456226 828.439046,680.79819 829.134164,684.076566 C828.961814,682.517418 828.875195,680.950005 828.874697,679.381385 C828.874697,655.833351 847.989635,636.742733 871.567667,636.742733 C895.145699,636.742733 914.260637,655.837358 914.260637,679.381385 C914.260637,702.12663 896.426983,720.710996 873.96439,721.951913 C874.654518,721.981299 875.347321,722 876.045474,722 C902.527125,722 924,700.557117 924,674.105151 C924,647.653184 902.5298,626.211637 876.045474,626.211637 C849.563822,626.211637 828.089609,647.65452 828.089609,674.105151 Z" transform="translate(-828 -622)"/>
</svg>
