<svg xmlns="http://www.w3.org/2000/svg" viewBox="0 0 96 100">
    <path fill="#353A50" d="M835.660932,530.320421 C835.649654,540.368393 839.913184,549.948037 847.389116,556.672206 C839.752609,548.940262 839.414394,536.62317 846.615121,528.484847 C853.815848,520.346524 866.096527,519.166141 874.719149,525.78357 C883.341772,532.400998 885.361783,544.556441 879.341894,553.600998 C873.322006,562.645555 861.317961,565.490584 851.870935,560.111776 C857.62521,563.848904 864.343979,565.83301 871.207891,565.822175 C890.845774,565.822175 906.761515,549.927976 906.761515,530.320421 C906.761515,510.712866 890.845774,494.818711 871.207891,494.818711 C851.576695,494.818711 835.660932,510.714202 835.660932,530.320421 Z M828,500.775938 C832.646981,486.545516 845.680875,476.391619 859.891304,472 C843.18452,472 828,482.705311 828,500.775938 Z M828.089609,524.105151 C828.089609,527.456226 828.439046,530.79819 829.134164,534.076566 C828.961814,532.517418 828.875195,530.950005 828.874697,529.381385 C828.874697,505.833351 847.989635,486.742733 871.567667,486.742733 C895.145699,486.742733 914.260637,505.837358 914.260637,529.381385 C914.260637,552.12663 896.426983,570.710996 873.96439,571.951913 C874.654518,571.981299 875.347321,572 876.045474,572 C902.527125,572 924,550.557117 924,524.105151 C924,497.653184 902.5298,476.211637 876.045474,476.211637 C849.563822,476.211637 828.089609,497.65452 828.089609,524.105151 Z" transform="translate(-828 -472)"/>
</svg>
