<svg xmlns="http://www.w3.org/2000/svg" viewBox="0 0 96 100">
    <path fill="#FF9300" d="M835.660932,380.320421 C835.649654,390.368393 839.913184,399.948037 847.389116,406.672206 C839.752609,398.940262 839.414394,386.62317 846.615121,378.484847 C853.815848,370.346524 866.096527,369.166141 874.719149,375.78357 C883.341772,382.400998 885.361783,394.556441 879.341894,403.600998 C873.322006,412.645555 861.317961,415.490584 851.870935,410.111776 C857.62521,413.848904 864.343979,415.83301 871.207891,415.822175 C890.845774,415.822175 906.761515,399.927976 906.761515,380.320421 C906.761515,360.712866 890.845774,344.818711 871.207891,344.818711 C851.576695,344.818711 835.660932,360.714202 835.660932,380.320421 Z M828,350.775938 C832.646981,336.545516 845.680875,326.391619 859.891304,322 C843.18452,322 828,332.705311 828,350.775938 Z M828.089609,374.105151 C828.089609,377.456226 828.439046,380.79819 829.134164,384.076566 C828.961814,382.517418 828.875195,380.950005 828.874697,379.381385 C828.874697,355.833351 847.989635,336.742733 871.567667,336.742733 C895.145699,336.742733 914.260637,355.837358 914.260637,379.381385 C914.260637,402.12663 896.426983,420.710996 873.96439,421.951913 C874.654518,421.981299 875.347321,422 876.045474,422 C902.527125,422 924,400.557117 924,374.105151 C924,347.653184 902.5298,326.211637 876.045474,326.211637 C849.563822,326.211637 828.089609,347.65452 828.089609,374.105151 Z" transform="translate(-828 -322)"/>
</svg>
