<svg xmlns="http://www.w3.org/2000/svg" viewBox="0 0 96 100">
    <path fill="#FFF" d="M835.660932,230.320421 C835.649654,240.368393 839.913184,249.948037 847.389116,256.672206 C839.752609,248.940262 839.414394,236.62317 846.615121,228.484847 C853.815848,220.346524 866.096527,219.166141 874.719149,225.78357 C883.341772,232.400998 885.361783,244.556441 879.341894,253.600998 C873.322006,262.645555 861.317961,265.490584 851.870935,260.111776 C857.62521,263.848904 864.343979,265.83301 871.207891,265.822175 C890.845774,265.822175 906.761515,249.927976 906.761515,230.320421 C906.761515,210.712866 890.845774,194.818711 871.207891,194.818711 C851.576695,194.818711 835.660932,210.714202 835.660932,230.320421 Z M828,200.775938 C832.646981,186.545516 845.680875,176.391619 859.891304,172 C843.18452,172 828,182.705311 828,200.775938 Z M828.089609,224.105151 C828.089609,227.456226 828.439046,230.79819 829.134164,234.076566 C828.961814,232.517418 828.875195,230.950005 828.874697,229.381385 C828.874697,205.833351 847.989635,186.742733 871.567667,186.742733 C895.145699,186.742733 914.260637,205.837358 914.260637,229.381385 C914.260637,252.12663 896.426983,270.710996 873.96439,271.951913 C874.654518,271.981299 875.347321,272 876.045474,272 C902.527125,272 924,250.557117 924,224.105151 C924,197.653184 902.5298,176.211637 876.045474,176.211637 C849.563822,176.211637 828.089609,197.65452 828.089609,224.105151 Z" transform="translate(-828 -172)" />
</svg>
